<svg xmlns="http://www.w3.org/2000/svg" viewBox="0 0 640 480" width="640" height="480">
  <defs>
    <linearGradient id="sky" x1="0" y1="0" x2="0" y2="1">
      <stop offset="0%" stop-color="#0f172a"/>
      <stop offset="100%" stop-color="#1e293b"/>
    </linearGradient>
    <linearGradient id="dome" x1="0" y1="1" x2="0" y2="0">
      <stop offset="0%" stop-color="#0f766e"/>
      <stop offset="100%" stop-color="#14b8a6"/>
    </linearGradient>
    <linearGradient id="minaret" x1="0" y1="1" x2="0" y2="0">
      <stop offset="0%" stop-color="#0d9488"/>
      <stop offset="100%" stop-color="#2dd4bf"/>
    </linearGradient>
  </defs>
  <rect width="640" height="480" fill="url(#sky)"/>
  <!-- Stars -->
  <rect x="50" y="40" width="2" height="2" fill="#fef3c7" opacity="0.8"/>
  <rect x="120" y="80" width="2" height="2" fill="#fef3c7" opacity="0.6"/>
  <rect x="200" y="30" width="2" height="2" fill="#fef3c7" opacity="0.9"/>
  <rect x="400" y="60" width="2" height="2" fill="#fef3c7" opacity="0.7"/>
  <rect x="550" y="50" width="2" height="2" fill="#fef3c7" opacity="0.8"/>
  <!-- Mosque silhouette -->
  <path d="M0 480 L0 280 L120 280 L120 200 L200 200 L200 280 L320 280 L320 180 L400 180 L400 280 L520 280 L520 200 L640 200 L640 480 Z" fill="#0f766e"/>
  <ellipse cx="320" cy="140" rx="100" ry="50" fill="url(#dome)"/>
  <rect x="300" y="90" width="40" height="50" fill="url(#minaret)"/>
  <rect x="295" y="60" width="50" height="30" fill="#0d9488"/>
</svg>
